# xmcd
#
# Track frame offsets:
#	150
#	7210
#	35450
#	58520
#	83955
#	109407
#	135955
#	154345
#	172270
#	203350
#	223240
#	244750
#	268167
#
# Disc length: 3877 seconds
#
# Revision: 0
# Processed by: cddbd v1.4PL0 Copyright (c) Steve Scherf et al.
# Submitted via: dBpowerAMP V4.0
#
DISCID=bd0f230d
DTITLE=Robert Brown - Stand Alone Tracks
DYEAR=1998
DGENRE=Blues
TTITLE0=Tuning
TTITLE1=J.B.Goode's Blues
TTITLE2=K.C.'s Blues
TTITLE3=Mr.Slow's Blues
TTITLE4=Green's Onion Blues
TTITLE5=St.James Blues
TTITLE6=J.J. Pink Blues
TTITLE7=B.S. Shuffle Blues
TTITLE8=B.B.'s Minor Blues
TTITLE9=J.C.'s Blues
TTITLE10=Jazzy Minor Blues
TTITLE11=Rocky's Blues
TTITLE12=Mr.Slow's#2
EXTD=Stand Alone Tracks By Robert Brown,Jb Thomas submitting
EXTT0=
EXTT1=
EXTT2=
EXTT3=
EXTT4=
EXTT5=
EXTT6=
EXTT7=
EXTT8=
EXTT9=
EXTT10=
EXTT11=
EXTT12=
PLAYORDER=
